Coordinates
version=1
nRows=8
nColumns=27
inDegrees=yes

Units are S.I. units (second, meters, Newtons, ...)
If the header above contains a line with 'inDegrees', this indicates whether rotational values are in degrees (yes) or radians (no).

endheader
time	r_x	r_y	r_z	t_x	t_y	t_z	sternoclavicular_r2	sternoclavicular_r3	unrotscap_r3	unrotscap_r2	acromioclavicular_r2	acromioclavicular_r3	acromioclavicular_r1	unrothum_r1	unrothum_r3	unrothum_r2	elv_angle	shoulder_elv	shoulder1_r2	shoulder_rot	elbow_flexion	pro_sup	deviation	flexion	wrist_hand_r1	wrist_hand_r3
      7.50000000	     43.96335913	     85.24197936	    -33.88593188	      0.43332581	      1.24481871	     -0.19608927	     -9.38299707	      3.97419470	     -3.97419470	      9.38299707	     -1.89986604	     15.35404905	      6.90153938	     -6.90153938	    -15.35404905	      1.89986604	     12.98751729	     38.77262825	    -12.98751729	     31.17147792	    116.19626383	     46.25199222	      0.03395572	      0.01396512	      2.58627328	      0.40007118
      7.51000000	     31.04733867	     85.13591878	    -20.92612972	      0.43209716	      1.24438545	     -0.19569513	     -9.31563187	      3.94566199	     -3.94566199	      9.31563187	     -1.88622596	     15.24381472	      6.85198980	     -6.85198980	    -15.24381472	      1.88622596	     15.57636182	     38.49426031	    -15.57636182	     30.35523549	    116.44236966	     49.13963514	      0.05669032	     -0.00016899	      4.25743355	     -0.00484114
      7.52000000	     31.10568351	     85.40937677	    -20.72769623	      0.43047567	      1.24458147	     -0.19480501	     -9.43787818	      3.99743976	     -3.99743976	      9.43787818	     -1.91097835	     15.44385484	      6.94190646	     -6.94190646	    -15.44385484	      1.91097835	     16.43919147	     38.99940922	    -16.43919147	     28.64622135	    117.11074479	     49.24079843	      0.05719306	     -0.00416199	      4.29384068	     -0.11923224
      7.53000000	     30.64698520	     85.00560036	    -20.27136940	      0.42950440	      1.24469243	     -0.19416805	     -9.67267606	      4.09688905	     -4.09688905	      9.67267606	     -1.95852014	     15.82807088	      7.11460893	     -7.11460893	    -15.82807088	      1.95852014	     18.83703773	     39.96964619	    -18.83703773	     27.71623291	    117.35281867	     50.79340772	      0.05886456	     -0.01635680	      4.41471855	     -0.46858789
      7.54000000	     24.55621592	     85.15025398	    -14.02407730	      0.42799320	      1.24453774	     -0.19346137	     -9.70624211	      4.11110605	     -4.11110605	      9.70624211	     -1.96531659	     15.88299735	      7.13929800	     -7.13929800	    -15.88299735	      1.96531659	     20.42275861	     40.10834859	    -20.42275861	     26.36497950	    117.75178987	     53.54177993	      0.07271109	     -0.02513937	      5.40596106	     -0.72018994
      7.55000000	     24.36665006	     85.06580044	    -13.70418574	      0.42672123	      1.24466278	     -0.19271464	     -9.90164556	      4.19386973	     -4.19386973	      9.90164556	     -2.00488181	     16.20274957	      7.28302442	     -7.28302442	    -16.20274957	      2.00488181	     22.10840351	     40.91579904	    -22.10840351	     25.20467002	    118.02564721	     54.46446613	      0.07269128	     -0.03348125	      5.40455585	     -0.95916713
      7.56000000	     24.42266027	     85.39977101	    -13.48103898	      0.42499052	      1.24483415	     -0.19186619	    -10.06233583	      4.26193054	     -4.26193054	     10.06233583	     -2.03741832	     16.46569821	      7.40121802	     -7.40121802	    -16.46569821	      2.03741832	     22.86839603	     41.57980694	    -22.86839603	     23.67324360	    118.49882592	     54.59770217	      0.07321603	     -0.03694011	      5.44176829	     -1.05825616
      7.57000000	     23.88619861	     84.88151462	    -12.96866789	      0.42417957	      1.24484614	     -0.19128931	    -10.31984881	      4.37100089	     -4.37100089	     10.31984881	     -2.08955946	     16.88708456	      7.59062829	     -7.59062829	    -16.88708456	      2.08955946	     25.42967360	     42.64390779	    -25.42967360	     23.15396517	    118.36059896	     56.66790444	      0.07341175	     -0.05042323	      5.45564194	     -1.44451920
